<svg width="640" height="633" viewBox="0 0 640 633" fill="none" xmlns="http://www.w3.org/2000/svg">
<path d="M538.633 88.4861L588.251 88.4866C588.251 84.8282 584.29 81.8627 579.403 81.8627C576.04 81.8627 573.115 83.2674 571.618 85.336C569.842 81.2156 564.679 78.2339 558.584 78.2339C552.736 78.2339 547.746 80.9797 545.783 84.8422C545.188 84.6666 544.542 84.5693 543.865 84.5693C540.975 84.5693 538.633 86.323 538.633 88.4861Z" fill="url(#paint0_linear_563_38892)"/>
<path d="M509.972 97.5147C493.777 97.5147 479.957 104.103 474.521 113.374C472.878 112.954 471.089 112.721 469.216 112.721C461.215 112.721 454.729 116.93 454.729 122.121H547.891C547.89 108.531 530.913 97.5147 509.972 97.5147Z" fill="url(#paint1_linear_563_38892)"/>
<path fill-rule="evenodd" clip-rule="evenodd" d="M236.718 17.8171C233.777 17.8171 231.064 18.4834 228.883 19.6062C224.326 8.30315 209.169 0 191.17 0C177.962 0 166.284 4.47108 159.202 11.3175C157.397 11.0104 155.509 10.845 153.565 10.845C140.732 10.845 130.328 17.9498 130.328 26.7141H152.054H176.802H223.691H230.286H249.745C249.745 21.8003 243.913 17.8171 236.718 17.8171Z" fill="url(#paint2_linear_563_38892)"/>
<path fill-rule="evenodd" clip-rule="evenodd" d="M146.364 363.351H106.943C96.2054 363.351 87.4951 372.062 87.4951 382.724V391.81C87.4951 402.472 96.1303 411.183 106.868 411.183H146.364C154.293 411.183 161.142 406.408 164.133 399.545H199.752V394.138H165.599C165.69 393.375 165.737 392.598 165.737 391.81V382.724C165.737 372.062 157.102 363.351 146.364 363.351Z" fill="#FDE0D8"/>
<path fill-rule="evenodd" clip-rule="evenodd" d="M287.755 182.916H248.259C237.521 182.916 228.811 191.626 228.886 202.364V211.374C228.886 222.037 237.521 230.747 248.259 230.747H265.732L269.737 289.426L275.131 289.058L271.151 230.747H287.755C298.418 230.747 307.128 222.112 307.128 211.374V202.288C307.128 191.626 298.493 182.916 287.755 182.916Z" fill="#FDE0D8"/>
<path fill-rule="evenodd" clip-rule="evenodd" d="M123.612 249.368H84.1159C73.4534 249.368 64.8183 258.079 64.7432 268.741V277.827C64.7432 288.489 73.3783 297.2 84.1159 297.2H123.612C129.818 297.2 135.363 294.275 138.913 289.712C145.803 295.401 154.082 302.511 160.481 308.838C155.45 311.766 153.047 314.92 151.996 317.322C150.118 321.452 150.794 325.958 154.023 329.787C156.501 332.791 159.805 334.443 163.334 334.443C164.01 334.443 164.686 334.368 165.361 334.217C169.566 333.466 172.945 330.613 174.372 326.633C175.348 323.78 176.099 317.998 170.017 311.015C169.979 310.978 169.923 310.902 169.867 310.827C169.81 310.752 169.754 310.677 169.717 310.64C177.751 307.786 188.413 306.134 201.629 305.609L201.404 300.202C184.434 300.878 173.095 303.281 165.662 306.36C158.67 299.289 149.213 291.192 141.632 284.958C142.505 282.753 142.985 280.348 142.985 277.827V268.741C142.985 258.079 134.35 249.368 123.612 249.368ZM157.027 319.5C158.078 317.097 160.631 314.845 164.46 312.892C164.986 313.493 165.512 314.019 165.962 314.469C169.191 318.073 170.317 321.753 169.266 324.681C168.515 326.784 166.713 328.36 164.46 328.736C163.109 329.036 160.556 329.036 158.303 326.258C156.426 324.08 155.975 321.753 157.027 319.5Z" fill="#FDE0D8"/>
<path fill-rule="evenodd" clip-rule="evenodd" d="M533.444 372.138H493.948C483.285 372.138 474.65 380.773 474.575 391.586V394.138H437.331V399.544H474.575V400.596C474.575 411.259 483.21 419.969 493.948 419.969H533.444C544.107 419.969 552.817 411.334 552.817 400.596V391.51C552.817 380.848 544.182 372.138 533.444 372.138Z" fill="#FDE0D8"/>
<path fill-rule="evenodd" clip-rule="evenodd" d="M431.774 182.916H392.278C381.615 182.916 372.905 191.626 372.905 202.364V211.374C372.905 222.037 381.54 230.747 392.278 230.747H403.449L392.373 288.704L397.683 289.718L408.953 230.747H431.774C442.437 230.747 451.147 222.112 451.147 211.374V202.288C451.147 191.626 442.512 182.916 431.774 182.916Z" fill="#FDE0D8"/>
<path fill-rule="evenodd" clip-rule="evenodd" d="M557.247 247.943H517.75C507.012 247.943 498.302 256.579 498.377 267.316V276.402C498.377 278.741 498.793 280.987 499.555 283.067C491.662 289.477 480.892 298.562 473.148 306.437C465.714 303.358 454.376 300.955 437.406 300.279L437.181 305.686C450.321 306.211 461.134 307.863 469.093 310.717C469.056 310.754 468.999 310.829 468.943 310.904C468.887 310.979 468.83 311.054 468.793 311.092C462.636 318.15 463.462 323.857 464.438 326.71C465.864 330.69 469.318 333.618 473.448 334.294C474.124 334.369 474.8 334.444 475.476 334.444C479.005 334.444 482.384 332.793 484.787 329.864C487.94 326.035 488.691 321.604 486.814 317.399C485.688 314.997 483.36 311.843 478.329 308.914C485.461 301.863 494.906 293.861 502.175 287.923C505.698 292.681 511.351 295.775 517.75 295.775H557.247C567.909 295.775 576.619 287.139 576.619 276.402V267.316C576.619 256.654 567.984 247.943 557.247 247.943ZM473.673 313.719C473.918 313.456 474.171 313.184 474.424 312.894C478.254 314.922 480.807 317.174 481.858 319.577C482.834 321.83 482.459 324.082 480.582 326.335C478.404 329.038 475.776 329.038 474.424 328.813C472.247 328.362 470.37 326.861 469.619 324.758C468.568 321.83 469.769 318.15 472.923 314.546C473.156 314.274 473.409 314.002 473.673 313.719Z" fill="#FDE0D8"/>
<path d="M274.375 474.634C267.016 494.758 276.778 522.616 299.605 522.015C317.175 521.564 318.452 522.24 325.81 522.09C349.313 521.489 364.856 497.236 357.573 474.859L274.375 474.634Z" fill="url(#paint3_linear_563_38892)"/>
<path d="M328.588 404.803L348.186 392.338C348.186 392.338 340.227 387.157 326.636 387.308L328.588 404.803Z" fill="#1A1A1A"/>
<path d="M357.121 472.832C356.896 472.832 356.596 472.757 356.445 472.532L348.411 462.62C348.111 462.32 348.186 461.719 348.486 461.494C348.786 461.193 349.387 461.268 349.612 461.569L357.647 471.48C357.947 471.781 357.872 472.381 357.572 472.607C357.497 472.757 357.346 472.832 357.121 472.832Z" fill="#1A1A1A"/>
<path d="M524.524 454.585H116.419V461.944H524.524V454.585Z" fill="#FB8FD8"/>
<path d="M524.299 462.019H513.411V628.414H524.299V462.019Z" fill="#D6219C"/>
<path d="M466.706 462.019H455.818V628.414H466.706V462.019Z" fill="#D6219C"/>
<path d="M127.608 462.019H116.72V628.414H127.608V462.019Z" fill="#D6219C"/>
<path d="M185.2 462.019H174.312V628.414H185.2V462.019Z" fill="#D6219C"/>
<path d="M443.999 281.734H196.809V429.733H443.999V281.734Z" fill="#1A1A1A"/>
<path d="M446.176 431.909H194.631V279.555H446.176V431.909ZM198.986 427.554H441.821V283.91H198.986V427.554Z" fill="#1A1A1A"/>
<path d="M326.711 300.206H214.004V305.612H326.711V300.206Z" fill="#871EFF"/>
<path d="M426.804 300.206H351.115V305.612H426.804V300.206Z" fill="#FA9F00"/>
<path d="M272.347 315.824H214.004V321.23H272.347V315.824Z" fill="#F75959"/>
<path d="M426.804 315.824H296.751V321.23H426.804V315.824Z" fill="#80C7F5"/>
<path d="M296.676 331.517H214.004V336.924H296.676V331.517Z" fill="#871EFF"/>
<path d="M426.728 331.517H340.902V336.924H426.728V331.517Z" fill="#E560BB"/>
<path d="M285.413 347.211H214.004V352.618H285.413V347.211Z" fill="#FA9F00"/>
<path d="M426.804 347.211H351.115V352.618H426.804V347.211Z" fill="#F75959"/>
<path d="M292.171 362.829H214.004V368.236H292.171V362.829Z" fill="#F75959"/>
<path d="M426.804 362.829H347.36V368.236H426.804V362.829Z" fill="#871EFF"/>
<path d="M255.378 378.447H214.004V383.854H255.378V378.447Z" fill="#80C7F5"/>
<path d="M426.729 378.447H279.631V383.854H426.729V378.447Z" fill="#871EFF"/>
<path d="M300.28 394.141H214.004V399.547H300.28V394.141Z" fill="#871EFF"/>
<path d="M426.728 394.141H324.608V399.547H426.728V394.141Z" fill="#FA9F00"/>
<path d="M326.711 409.835H214.004V415.241H326.711V409.835Z" fill="#80C7F5"/>
<path d="M426.804 409.835H351.115V415.241H426.804V409.835Z" fill="#F75959"/>
<path fill-rule="evenodd" clip-rule="evenodd" d="M385.58 463.328L312.925 460.219L335.977 519.915L367.514 511.054L369.211 623.784L369.211 623.784V624.482H406.744C410.698 624.482 413.904 621.306 413.904 617.386C413.904 613.468 410.699 610.29 406.744 610.29H401.806C402.471 599.312 409.304 486.483 409.233 485.554C408.858 472.864 398.27 462.953 385.58 463.328Z" fill="#871EFF"/>
<path fill-rule="evenodd" clip-rule="evenodd" d="M245.721 457.741L323.963 460.219L293.102 522.092L269.374 511.054L267.256 604.445V624.482H227.377C223.177 624.482 219.771 621.129 219.771 616.991C219.771 612.855 223.176 609.501 227.377 609.501H234.968C233.447 594.429 221.998 480.879 222.068 479.967C222.444 467.277 233.031 457.366 245.721 457.741Z" fill="#871EFF"/>
<path d="M225.748 440.395C227.4 450.833 237.086 457.966 247.598 456.389C248.049 456.314 248.424 456.239 248.8 456.164L250.977 455.638C261.189 453.386 267.572 443.324 265.394 433.112C263.442 424.251 255.483 418.019 246.397 418.244L244.144 418.32C233.632 418.62 225.222 427.405 225.522 437.918C225.522 438.819 225.673 439.569 225.748 440.395Z" fill="#FCAC98"/>
<path d="M421.052 434.014C419.4 444.451 409.713 451.584 399.276 450.008C398.826 449.933 398.45 449.857 398 449.782L395.822 449.257C385.685 446.929 379.228 436.792 381.555 426.655C383.583 417.945 391.467 411.713 400.402 411.938L402.655 412.013C413.167 412.313 421.577 421.099 421.277 431.611C421.277 432.437 421.127 433.263 421.052 434.014Z" fill="#FCAC98"/>
<path d="M356.251 474.86C355.857 473.68 355.521 472.492 355.244 471.297L375.248 496.11C380.88 503.094 390.491 505.496 398.751 501.967C398.825 501.93 398.901 501.911 398.976 501.892C399.05 501.874 399.126 501.855 399.201 501.817C409.239 497.173 413.747 485.354 409.146 475.233L409.188 475.236L411.516 445.501C411.516 445.05 411.516 444.6 411.666 444.225C411.666 434.538 403.857 426.804 394.246 426.804H383.445C378.071 419.714 371.979 413.168 365.261 407.281L359.706 402.459C357.17 399.62 354.2 396.994 350.832 394.756L350.469 394.441L350.462 394.512C343.599 390.049 333.792 387.713 325.315 387.383C316.837 387.052 309.156 387.052 302.871 387.383C287.013 388.216 274.207 399.455 266.134 406.54C265.552 407.051 264.995 407.54 264.463 408.002C250.422 420.166 240.915 434.613 233.181 451.508L222.294 475.161C217.638 485.298 222.143 497.162 232.205 501.817C232.28 501.855 232.355 501.873 232.43 501.892C232.505 501.911 232.581 501.93 232.656 501.967C240.915 505.496 250.527 503.094 256.158 496.11L273.411 474.711L356.251 474.86Z" fill="white"/>
<ellipse cx="315.929" cy="351.792" rx="20.2738" ry="20.2738" fill="#FFC321"/>
<path d="M277.275 570.186L271.609 627.577L282.445 628.647L288.11 571.256L277.275 570.186Z" fill="#0D0D0D"/>
<path d="M360.427 570.145L349.592 571.215L355.259 628.606L366.095 627.536L360.427 570.145Z" fill="#0D0D0D"/>
<path fill-rule="evenodd" clip-rule="evenodd" d="M279.405 573.601H358.247C371.988 573.601 383.402 562.938 384.378 549.272L385.387 534.433C391.795 534.687 397.381 529.812 397.894 523.366L398.42 516.984C398.943 510.401 394.026 504.563 387.456 503.999L388.508 488.526C388.583 487.925 388.583 487.324 388.583 486.723C388.583 472.231 376.794 460.518 362.377 460.518H275.275C274.674 460.518 274.073 460.518 273.473 460.593C259.056 461.569 248.168 474.033 249.144 488.45L250.206 504.071C243.554 504.256 238.407 509.947 238.707 516.534L239.007 522.916C239.157 529.599 244.864 534.78 251.472 534.48H251.547C251.79 534.469 252.031 534.451 252.27 534.426L253.274 549.197C254.25 562.938 265.663 573.601 279.405 573.601Z" fill="url(#paint4_linear_563_38892)"/>
<path d="M640 624H0V633H640V624Z" fill="#666666"/>
<path d="M414.729 200.036C416.868 200.036 418.602 198.302 418.602 196.163C418.602 194.025 416.868 192.291 414.729 192.291C412.59 192.291 410.856 194.025 410.856 196.163C410.856 198.302 412.59 200.036 414.729 200.036Z" fill="#333333"/>
<path fill-rule="evenodd" clip-rule="evenodd" d="M399.238 195.195H407.952V197.132H399.238C398.703 197.132 398.269 197.566 398.269 198.1V215.528C398.269 216.062 398.703 216.496 399.238 216.496H414.729C415.263 216.496 415.697 216.062 415.697 215.528V209.74C415.697 209.726 415.697 209.711 415.697 209.696V203.932C415.697 203.917 415.697 203.902 415.697 203.887V203.231L417.634 202.457V202.479L425.988 199.137C426.286 199.018 426.624 199.054 426.89 199.235C427.156 199.415 427.316 199.715 427.316 200.036V213.591C427.316 213.913 427.156 214.213 426.89 214.393C426.624 214.573 426.286 214.61 425.988 214.49L417.634 211.148V215.528C417.634 217.131 416.333 218.432 414.729 218.432H399.238C397.634 218.432 396.333 217.131 396.333 215.528V198.1C396.333 196.496 397.634 195.195 399.238 195.195ZM417.634 209.063L425.379 212.161V201.466L417.634 204.565V209.063Z" fill="#333333"/>
<circle cx="414.729" cy="196.164" r="3.87284" fill="#30A849"/>
<g clip-path="url(#clip0_563_38892)">
<path fill-rule="evenodd" clip-rule="evenodd" d="M126.995 377.177C124.876 377.177 123.166 378.887 123.166 381.006C123.166 383.124 124.876 384.835 126.995 384.835C129.113 384.835 130.824 383.124 130.824 381.006C130.824 378.887 129.113 377.177 126.995 377.177ZM125.08 381.006C125.08 379.946 125.936 379.091 126.995 379.091C128.054 379.091 128.909 379.946 128.909 381.006C128.909 382.065 128.054 382.92 126.995 382.92C125.936 382.92 125.08 382.065 125.08 381.006Z" fill="#871EFF"/>
<path fill-rule="evenodd" clip-rule="evenodd" d="M121.303 388.715C122.554 387.464 124.264 386.749 126.038 386.749H127.953C129.727 386.749 131.437 387.451 132.688 388.715C133.938 389.978 134.653 391.676 134.653 393.45C134.653 393.973 134.219 394.407 133.696 394.407H120.295C119.772 394.407 119.338 393.973 119.338 393.45C119.338 391.676 120.04 389.966 121.303 388.715ZM126.038 388.664C124.775 388.664 123.55 389.174 122.656 390.068C121.993 390.731 121.533 391.586 121.354 392.493H132.649C132.458 391.574 132.011 390.731 131.348 390.068C130.454 389.174 129.229 388.664 127.966 388.664H126.038Z" fill="#871EFF"/>
<path fill-rule="evenodd" clip-rule="evenodd" d="M139.949 373.347H114.041C112.739 373.347 111.68 374.432 111.68 375.772V395.171C111.68 396.511 112.739 397.596 114.041 397.596H139.962C141.264 397.596 142.323 396.511 142.323 395.171V375.772C142.31 374.432 141.251 373.347 139.949 373.347ZM114.041 375.006H139.962C140.307 375.006 140.664 375.299 140.664 375.772V395.171C140.664 395.643 140.307 395.937 139.962 395.937H114.041C113.696 395.937 113.339 395.643 113.339 395.171V375.772C113.339 375.299 113.696 375.006 114.041 375.006Z" fill="#333333"/>
<path d="M119.338 400.469C119.338 399.895 119.721 399.512 120.295 399.512H133.696C134.27 399.512 134.653 399.895 134.653 400.469C134.653 401.043 134.27 401.426 133.696 401.426H120.295C119.721 401.426 119.338 401.043 119.338 400.469Z" fill="#333333"/>
</g>
<g clip-path="url(#clip1_563_38892)">
<path fill-rule="evenodd" clip-rule="evenodd" d="M505.502 385.05C507.616 383.173 510.49 382.121 513.486 382.121C516.481 382.121 519.355 383.173 521.469 385.05C523.584 386.927 524.777 389.456 524.777 392.106C524.777 396.246 521.876 400.759 518.799 404.353C517.281 406.124 515.749 407.628 514.611 408.68C514.177 409.08 513.784 409.426 513.486 409.692C513.187 409.426 512.794 409.093 512.361 408.68C511.222 407.628 509.69 406.124 508.172 404.353C505.095 400.759 502.194 396.246 502.194 392.106C502.194 389.456 503.374 386.914 505.502 385.05ZM512.727 411.809C512.727 411.809 512.727 411.809 513.486 411.076L512.727 411.809C513.16 412.155 513.811 412.155 514.245 411.809L513.486 411.076C514.245 411.822 514.245 411.822 514.245 411.822L514.258 411.809L514.285 411.782L514.394 411.689C514.489 411.609 514.624 411.489 514.8 411.343C515.153 411.05 515.641 410.61 516.237 410.065C517.43 408.973 519.002 407.415 520.588 405.565C523.733 401.917 527.041 396.951 527.041 392.106C527.041 388.924 525.617 385.875 523.069 383.639C520.534 381.389 517.078 380.124 513.486 380.124C509.894 380.124 506.437 381.389 503.902 383.639C501.354 385.875 499.931 388.924 499.931 392.106C499.931 396.951 503.238 401.917 506.369 405.565C507.955 407.415 509.541 408.973 510.72 410.065C511.317 410.61 511.805 411.05 512.157 411.343C512.333 411.489 512.469 411.609 512.564 411.689L512.672 411.782L512.727 411.809Z" fill="#333333"/>
<path fill-rule="evenodd" clip-rule="evenodd" d="M513.485 387.591C509.744 387.591 507.386 390.267 507.386 393.582C507.386 396.897 509.744 399.572 513.485 399.572C517.227 399.572 519.585 396.897 519.585 393.582C519.585 390.267 517.227 387.591 513.485 387.591ZM513.485 397.575C510.991 397.575 509.419 395.792 509.419 393.582C509.419 391.372 510.991 389.588 513.485 389.588C515.98 389.588 517.552 391.372 517.552 393.582C517.552 395.792 515.98 397.575 513.485 397.575Z" fill="#FA7454"/>
</g>
<g clip-path="url(#clip2_563_38892)">
<path d="M101.933 279.585C101.933 280.695 102.836 281.599 103.946 281.599C105.057 281.599 105.96 280.695 105.96 279.585C105.96 278.475 105.057 277.571 103.946 277.571C102.836 277.571 101.933 278.475 101.933 279.585Z" fill="#E61D1D"/>
<path d="M101.933 275.544H105.96V267.488H101.933V275.544Z" fill="#E61D1D"/>
<path fill-rule="evenodd" clip-rule="evenodd" d="M103.934 257.162C104.644 257.162 105.302 257.549 105.638 258.181L119.193 283.355C119.516 283.949 119.503 284.685 119.154 285.265C118.806 285.846 118.173 286.208 117.489 286.208H90.3792C89.695 286.208 89.0624 285.846 88.7139 285.265C88.3653 284.685 88.3524 283.949 88.6751 283.355L102.23 258.181C102.566 257.549 103.224 257.162 103.934 257.162ZM103.934 259.098L90.3792 284.271H117.489L103.934 259.098Z" fill="#333333"/>
</g>
<g clip-path="url(#clip3_563_38892)">
<path fill-rule="evenodd" clip-rule="evenodd" d="M524.032 265.077C527.653 261.402 532.576 259.34 537.685 259.34C542.808 259.34 547.717 261.402 551.337 265.077C551.752 265.498 552.439 265.498 552.854 265.077C553.269 264.656 553.269 263.958 552.854 263.537C548.847 259.456 543.38 257.162 537.685 257.162C532.003 257.162 526.537 259.456 522.515 263.537C522.1 263.958 522.1 264.656 522.515 265.077C522.93 265.512 523.617 265.512 524.032 265.077Z" fill="#333333"/>
<path fill-rule="evenodd" clip-rule="evenodd" d="M537.684 268.053C534.837 268.053 532.117 269.201 530.1 271.234C529.685 271.655 528.998 271.655 528.583 271.234C528.168 270.813 528.168 270.116 528.583 269.695C531.001 267.255 534.278 265.875 537.684 265.875C541.105 265.875 544.367 267.255 546.786 269.695C547.201 270.116 547.201 270.813 546.786 271.234C546.371 271.655 545.684 271.655 545.269 271.234C543.266 269.201 540.532 268.053 537.684 268.053Z" fill="#333333"/>
<path fill-rule="evenodd" clip-rule="evenodd" d="M537.698 276.767C536.511 276.767 535.552 277.74 535.552 278.946C535.552 280.151 536.511 281.124 537.698 281.124C538.886 281.124 539.845 280.151 539.845 278.946C539.845 277.74 538.886 276.767 537.698 276.767ZM533.405 278.946C533.405 276.535 535.323 274.589 537.698 274.589C540.074 274.589 541.992 276.535 541.992 278.946C541.992 281.357 540.074 283.303 537.698 283.303C535.323 283.303 533.405 281.342 533.405 278.946Z" fill="#80C7F5"/>
</g>
<path fill-rule="evenodd" clip-rule="evenodd" d="M255.875 193.812C255.875 193.3 256.3 192.875 256.812 192.875H281.188C281.7 192.875 282.125 193.3 282.125 193.812V218.188C282.125 218.7 281.7 219.125 281.188 219.125H256.812C256.3 219.125 255.875 218.7 255.875 218.188V193.812ZM256.812 191C255.263 191 254 192.263 254 193.812V218.188C254 219.737 255.263 221 256.812 221H281.188C282.737 221 284 219.737 284 218.188V193.812C284 192.263 282.737 191 281.188 191H256.812ZM264.975 202.525C264.612 202.163 264.012 202.163 263.65 202.525L258.025 208.15C257.663 208.513 257.663 209.112 258.025 209.475C258.387 209.837 258.988 209.837 259.35 209.475L264.312 204.513L271.15 211.35C271.513 211.713 272.112 211.713 272.475 211.35L279.975 203.85C280.338 203.487 280.338 202.888 279.975 202.525C279.613 202.163 279.012 202.163 278.65 202.525L271.812 209.362L264.975 202.525Z" fill="#FF0000"/>
<path fill-rule="evenodd" clip-rule="evenodd" d="M255.875 193.812C255.875 193.3 256.3 192.875 256.812 192.875H281.188C281.7 192.875 282.125 193.3 282.125 193.812V218.188C282.125 218.7 281.7 219.125 281.188 219.125H256.812C256.3 219.125 255.875 218.7 255.875 218.188V193.812ZM256.812 191C255.263 191 254 192.263 254 193.812V218.188C254 219.737 255.263 221 256.812 221H281.188C282.737 221 284 219.737 284 218.188V193.812C284 192.263 282.737 191 281.188 191H256.812ZM264.975 202.525C264.612 202.163 264.012 202.163 263.65 202.525L258.025 208.15C257.663 208.513 257.663 209.112 258.025 209.475C258.387 209.837 258.988 209.837 259.35 209.475L264.312 204.513L271.15 211.35C271.513 211.713 272.112 211.713 272.475 211.35L279.975 203.85C280.338 203.487 280.338 202.888 279.975 202.525C279.613 202.163 279.012 202.163 278.65 202.525L271.812 209.362L264.975 202.525Z" fill="white"/>
<path fill-rule="evenodd" clip-rule="evenodd" d="M255.875 193.812C255.875 193.3 256.3 192.875 256.812 192.875H281.188C281.7 192.875 282.125 193.3 282.125 193.812V218.188C282.125 218.7 281.7 219.125 281.188 219.125H256.812C256.3 219.125 255.875 218.7 255.875 218.188V193.812ZM256.812 191C255.263 191 254 192.263 254 193.812V218.188C254 219.737 255.263 221 256.812 221H281.188C282.737 221 284 219.737 284 218.188V193.812C284 192.263 282.737 191 281.188 191H256.812ZM264.975 202.525C264.612 202.163 264.012 202.163 263.65 202.525L258.025 208.15C257.663 208.513 257.663 209.112 258.025 209.475C258.387 209.837 258.988 209.837 259.35 209.475L264.312 204.513L271.15 211.35C271.513 211.713 272.112 211.713 272.475 211.35L279.975 203.85C280.338 203.487 280.338 202.888 279.975 202.525C279.613 202.163 279.012 202.163 278.65 202.525L271.812 209.362L264.975 202.525Z" fill="white"/>
<path fill-rule="evenodd" clip-rule="evenodd" d="M255.875 193.812C255.875 193.3 256.3 192.875 256.812 192.875H281.188C281.7 192.875 282.125 193.3 282.125 193.812V218.188C282.125 218.7 281.7 219.125 281.188 219.125H256.812C256.3 219.125 255.875 218.7 255.875 218.188V193.812ZM256.812 191C255.263 191 254 192.263 254 193.812V218.188C254 219.737 255.263 221 256.812 221H281.188C282.737 221 284 219.737 284 218.188V193.812C284 192.263 282.737 191 281.188 191H256.812ZM264.975 202.525C264.612 202.163 264.012 202.163 263.65 202.525L258.025 208.15C257.663 208.513 257.663 209.112 258.025 209.475C258.387 209.837 258.988 209.837 259.35 209.475L264.312 204.513L271.15 211.35C271.513 211.713 272.112 211.713 272.475 211.35L279.975 203.85C280.338 203.487 280.338 202.888 279.975 202.525C279.613 202.163 279.012 202.163 278.65 202.525L271.812 209.362L264.975 202.525Z" fill="black"/>
<path fill-rule="evenodd" clip-rule="evenodd" d="M255.875 193.812C255.875 193.3 256.3 192.875 256.812 192.875H281.188C281.7 192.875 282.125 193.3 282.125 193.812V218.188C282.125 218.7 281.7 219.125 281.188 219.125H256.812C256.3 219.125 255.875 218.7 255.875 218.188V193.812ZM256.812 191C255.263 191 254 192.263 254 193.812V218.188C254 219.737 255.263 221 256.812 221H281.188C282.737 221 284 219.737 284 218.188V193.812C284 192.263 282.737 191 281.188 191H256.812ZM264.975 202.525C264.612 202.163 264.012 202.163 263.65 202.525L258.025 208.15C257.663 208.513 257.663 209.112 258.025 209.475C258.387 209.837 258.988 209.837 259.35 209.475L264.312 204.513L271.15 211.35C271.513 211.713 272.112 211.713 272.475 211.35L279.975 203.85C280.338 203.487 280.338 202.888 279.975 202.525C279.613 202.163 279.012 202.163 278.65 202.525L271.812 209.362L264.975 202.525Z" fill="white"/>
<path fill-rule="evenodd" clip-rule="evenodd" d="M264.975 202.525C264.612 202.163 264.012 202.163 263.65 202.525L258.025 208.15C257.662 208.513 257.662 209.113 258.025 209.475C258.387 209.838 258.987 209.838 259.35 209.475L264.312 204.513L271.15 211.35C271.512 211.713 272.112 211.713 272.475 211.35L279.975 203.85C280.337 203.488 280.337 202.888 279.975 202.525C279.612 202.163 279.012 202.163 278.65 202.525L271.812 209.363L264.975 202.525Z" fill="#D6219C"/>
<path fill-rule="evenodd" clip-rule="evenodd" d="M255.875 193.812C255.875 193.3 256.3 192.875 256.812 192.875H281.188C281.7 192.875 282.125 193.3 282.125 193.812V218.188C282.125 218.7 281.7 219.125 281.188 219.125H256.812C256.3 219.125 255.875 218.7 255.875 218.188V193.812ZM256.812 191C255.263 191 254 192.263 254 193.812V218.188C254 219.737 255.263 221 256.812 221H281.188C282.737 221 284 219.737 284 218.188V193.812C284 192.263 282.737 191 281.188 191H256.812Z" fill="white"/>
<path fill-rule="evenodd" clip-rule="evenodd" d="M255.875 193.812C255.875 193.3 256.3 192.875 256.812 192.875H281.188C281.7 192.875 282.125 193.3 282.125 193.812V218.188C282.125 218.7 281.7 219.125 281.188 219.125H256.812C256.3 219.125 255.875 218.7 255.875 218.188V193.812ZM256.812 191C255.263 191 254 192.263 254 193.812V218.188C254 219.737 255.263 221 256.812 221H281.188C282.737 221 284 219.737 284 218.188V193.812C284 192.263 282.737 191 281.188 191H256.812Z" fill="white"/>
<path fill-rule="evenodd" clip-rule="evenodd" d="M255.875 193.812C255.875 193.3 256.3 192.875 256.812 192.875H281.188C281.7 192.875 282.125 193.3 282.125 193.812V218.188C282.125 218.7 281.7 219.125 281.188 219.125H256.812C256.3 219.125 255.875 218.7 255.875 218.188V193.812ZM256.812 191C255.263 191 254 192.263 254 193.812V218.188C254 219.737 255.263 221 256.812 221H281.188C282.737 221 284 219.737 284 218.188V193.812C284 192.263 282.737 191 281.188 191H256.812Z" fill="#333333"/>
<defs>
<linearGradient id="paint0_linear_563_38892" x1="461.212" y1="120.202" x2="583.058" y2="120.202" gradientUnits="userSpaceOnUse">
<stop stop-color="#D5279B"/>
<stop offset="1" stop-color="#FEA18C"/>
</linearGradient>
<linearGradient id="paint1_linear_563_38892" x1="461.212" y1="120.202" x2="583.058" y2="120.202" gradientUnits="userSpaceOnUse">
<stop stop-color="#D5279B"/>
<stop offset="1" stop-color="#FEA18C"/>
</linearGradient>
<linearGradient id="paint2_linear_563_38892" x1="136.126" y1="25.5461" x2="245.101" y2="25.5461" gradientUnits="userSpaceOnUse">
<stop stop-color="#8728FB"/>
<stop offset="1" stop-color="#FFA58B"/>
</linearGradient>
<linearGradient id="paint3_linear_563_38892" x1="315.904" y1="475.831" x2="310.337" y2="797.978" gradientUnits="userSpaceOnUse">
<stop stop-color="#9774AC"/>
<stop offset="0.4" stop-color="#47A6D3"/>
<stop offset="0.5" stop-color="#A7A7AE"/>
<stop offset="0.59" stop-color="#E89AC0"/>
<stop offset="1" stop-color="#BFE7D1"/>
</linearGradient>
<linearGradient id="paint4_linear_563_38892" x1="318.826" y1="460.668" x2="318.826" y2="573.3" gradientUnits="userSpaceOnUse">
<stop stop-color="#D5279B"/>
<stop offset="1" stop-color="#FEA18C"/>
</linearGradient>
<clipPath id="clip0_563_38892">
<rect width="30.6306" height="28.0781" fill="white" transform="translate(111.68 373.347)"/>
</clipPath>
<clipPath id="clip1_563_38892">
<rect width="27.1098" height="31.9509" fill="white" transform="translate(499.931 380.124)"/>
</clipPath>
<clipPath id="clip2_563_38892">
<rect width="30.9827" height="29.0463" fill="white" transform="translate(88.4424 257.162)"/>
</clipPath>
<clipPath id="clip3_563_38892">
<rect width="30.9827" height="26.1416" fill="white" transform="translate(522.2 257.162)"/>
</clipPath>
</defs>
</svg>
